<svg width="24" height="24" viewBox="0 0 24 24" fill="none" xmlns="http://www.w3.org/2000/svg">
<g clip-path="url(#clip0)" filter="url(#filter0_d)">
<path d="M19.9843 4.70404C19.9469 3.8539 19.8094 3.26944 19.6124 2.76299C19.4093 2.22541 19.0967 1.74412 18.6872 1.34401C18.2871 0.937683 17.8026 0.621948 17.2713 0.421957C16.7619 0.22502 16.1805 0.0875415 15.3304 0.0500586C14.4739 0.00940124 14.202 0 12.0297 0C9.85737 0 9.58546 0.00940124 8.73215 0.0468842C7.88201 0.0843671 7.29754 0.221967 6.79122 0.418783C6.25352 0.621948 5.77222 0.934509 5.37212 1.34401C4.96579 1.74412 4.65018 2.22858 4.45006 2.75994C4.25313 3.26944 4.11565 3.85073 4.07817 4.70087C4.03751 5.55736 4.02811 5.82926 4.02811 8.00156C4.02811 10.1739 4.03751 10.4458 4.07499 11.2991C4.11247 12.1492 4.25007 12.7337 4.44701 13.2401C4.65018 13.7777 4.96579 14.259 5.37212 14.6591C5.77222 15.0654 6.25669 15.3812 6.78804 15.5812C7.29754 15.7781 7.87883 15.9156 8.7291 15.9531C9.58229 15.9907 9.85432 16 12.0266 16C14.1989 16 14.4708 15.9907 15.3241 15.9531C16.1743 15.9156 16.7587 15.7781 17.2651 15.5812C18.3403 15.1654 19.1905 14.3153 19.6062 13.2401C19.803 12.7306 19.9406 12.1492 19.9781 11.2991C20.0156 10.4458 20.025 10.1739 20.025 8.00156C20.025 5.82926 20.0218 5.55736 19.9843 4.70404ZM18.5435 11.2366C18.5091 12.018 18.3778 12.4399 18.2684 12.7212C17.9996 13.4183 17.4464 13.9715 16.7493 14.2403C16.468 14.3497 16.043 14.481 15.2647 14.5153C14.4208 14.5529 14.1677 14.5622 12.0328 14.5622C9.89803 14.5622 9.64175 14.5529 8.80089 14.5153C8.01949 14.481 7.59753 14.3497 7.31622 14.2403C6.96935 14.1121 6.65362 13.909 6.39734 13.6433C6.13167 13.3838 5.9285 13.0713 5.8003 12.7244C5.69091 12.4431 5.55966 12.018 5.52535 11.2397C5.48774 10.3958 5.47846 10.1426 5.47846 8.00779C5.47846 5.87297 5.48774 5.6167 5.52535 4.77596C5.55966 3.99455 5.69091 3.5726 5.8003 3.29129C5.9285 2.9443 6.13167 2.62869 6.40052 2.37229C6.65985 2.10661 6.97241 1.90345 7.3194 1.77537C7.6007 1.66597 8.02583 1.53472 8.80406 1.50029C9.64798 1.46281 9.9012 1.45341 12.0359 1.45341C14.1739 1.45341 14.427 1.46281 15.2678 1.50029C16.0492 1.53472 16.4712 1.66597 16.7525 1.77537C17.0994 1.90345 17.4151 2.10661 17.6714 2.37229C17.9371 2.63174 18.1402 2.9443 18.2684 3.29129C18.3778 3.5726 18.5091 3.99761 18.5435 4.77596C18.581 5.61987 18.5904 5.87297 18.5904 8.00779C18.5904 10.1426 18.581 10.3927 18.5435 11.2366Z" fill="white"/>
<path d="M12.0297 3.8916C9.76055 3.8916 7.91949 5.73254 7.91949 8.00178C7.91949 10.271 9.76055 12.112 12.0297 12.112C14.2989 12.112 16.1398 10.271 16.1398 8.00178C16.1398 5.73254 14.2989 3.8916 12.0297 3.8916ZM12.0297 10.6679C10.5576 10.6679 9.3635 9.47399 9.3635 8.00178C9.3635 6.52957 10.5576 5.33561 12.0297 5.33561C13.5019 5.33561 14.6958 6.52957 14.6958 8.00178C14.6958 9.47399 13.5019 10.6679 12.0297 10.6679Z" fill="white"/>
<path d="M17.262 3.72858C17.262 4.25847 16.8324 4.68812 16.3024 4.68812C15.7725 4.68812 15.3428 4.25847 15.3428 3.72858C15.3428 3.19857 15.7725 2.76904 16.3024 2.76904C16.8324 2.76904 17.262 3.19857 17.262 3.72858Z" fill="white"/>
</g>
<defs>
<filter id="filter0_d" x="0" y="0" width="24" height="24" filterUnits="userSpaceOnUse" color-interpolation-filters="sRGB">
<feFlood flood-opacity="0" result="BackgroundImageFix"/>
<feColorMatrix in="SourceAlpha" type="matrix" values="0 0 0 0 0 0 0 0 0 0 0 0 0 0 0 0 0 0 127 0"/>
<feOffset dy="4"/>
<feGaussianBlur stdDeviation="2"/>
<feColorMatrix type="matrix" values="0 0 0 0 0 0 0 0 0 0 0 0 0 0 0 0 0 0 0.25 0"/>
<feBlend mode="normal" in2="BackgroundImageFix" result="effect1_dropShadow"/>
<feBlend mode="normal" in="SourceGraphic" in2="effect1_dropShadow" result="shape"/>
</filter>
<clipPath id="clip0">
<rect width="16" height="16" fill="white" transform="translate(4)"/>
</clipPath>
</defs>
</svg>
